<svg width="494" height="789" viewBox="0 0 494 789" fill="none" xmlns="http://www.w3.org/2000/svg">
<g opacity="0.05">
<path opacity="0.91" d="M275.117 173.6C-60.0647 -120.121 -178.262 44.9446 -186.528 57.525C-186.874 58.0519 -186.997 58.5989 -186.991 59.2293L-183.061 482.113C-181.901 606.932 -81.271 709.256 40.5524 682.05C179.056 651.118 341.425 579.852 397.401 416.321C451.187 259.188 301.966 197.127 275.117 173.6Z" fill="#6FCF97"/>
</g>
<g opacity="0.91" filter="url(#filter0_d_1_2572)">
<path d="M317.788 724.342C196.466 618.05 114.184 594.05 61.4199 597.849C8.69272 601.646 -14.8305 633.227 -18.5996 638.817C-18.8827 639.237 -18.9949 639.679 -18.9893 640.285L-17.082 845.465C-16.3893 919.975 15.1835 989.418 63.5791 1032.72C111.946 1075.99 177.094 1093.15 245.141 1063.24C315.219 1032.43 379.206 982.346 407.059 900.993C416.851 872.389 417.387 848.171 412.423 827.665C407.457 807.153 396.972 790.29 384.625 776.432C372.275 762.571 358.076 751.733 345.711 743.273C339.526 739.041 333.814 735.414 329.011 732.291C324.232 729.185 320.31 726.552 317.788 724.342Z" stroke="#4F4F4F" stroke-width="2"/>
</g>
<mask id="mask0_1_2572" style="mask-type:alpha" maskUnits="userSpaceOnUse" x="-20" y="537" width="362" height="391">
<path opacity="0.69" d="M260.682 642.787C60.4857 467.57 -12.2673 561.485 -19.407 571.916C-19.834 572.54 -19.9963 573.221 -19.9893 573.977L-18.8363 697.878C-17.4447 847.426 113.604 982.65 240.673 903.783C282.152 878.038 317.283 841.596 334.955 790.031C367.623 694.708 276.99 657.06 260.682 642.787Z" fill="#25356A" fill-opacity="0.35"/>
</mask>
<g mask="url(#mask0_1_2572)">
<circle cx="-0.953357" cy="532.547" r="5.07203" fill="#25356A" fill-opacity="0.35"/>
<circle cx="15.9534" cy="532.547" r="5.07203" fill="#25356A" fill-opacity="0.35"/>
<circle cx="32.8601" cy="532.547" r="5.07203" fill="#25356A" fill-opacity="0.35"/>
<circle cx="49.767" cy="532.547" r="5.07203" fill="#25356A" fill-opacity="0.35"/>
<circle cx="66.6737" cy="532.547" r="5.07203" fill="#25356A" fill-opacity="0.35"/>
<circle cx="83.5806" cy="532.547" r="5.07203" fill="#25356A" fill-opacity="0.35"/>
<circle cx="100.487" cy="532.547" r="5.07203" fill="#25356A" fill-opacity="0.35"/>
<circle cx="117.394" cy="532.547" r="5.07203" fill="#25356A" fill-opacity="0.35"/>
<circle cx="134.301" cy="532.547" r="5.07203" fill="#25356A" fill-opacity="0.35"/>
<circle cx="151.208" cy="532.547" r="5.07203" fill="#25356A" fill-opacity="0.35"/>
<circle cx="168.114" cy="532.547" r="5.07203" fill="#25356A" fill-opacity="0.35"/>
<circle cx="185.021" cy="532.547" r="5.07203" fill="#25356A" fill-opacity="0.35"/>
<circle cx="201.928" cy="532.547" r="5.07203" fill="#25356A" fill-opacity="0.35"/>
<circle cx="218.835" cy="532.547" r="5.07203" fill="#25356A" fill-opacity="0.35"/>
<circle cx="235.741" cy="532.547" r="5.07203" fill="#25356A" fill-opacity="0.35"/>
<circle cx="252.648" cy="532.547" r="5.07203" fill="#25356A" fill-opacity="0.35"/>
<circle cx="269.555" cy="532.547" r="5.07203" fill="#25356A" fill-opacity="0.35"/>
<circle cx="286.462" cy="532.547" r="5.07203" fill="#25356A" fill-opacity="0.35"/>
<circle cx="303.369" cy="532.547" r="5.07203" fill="#25356A" fill-opacity="0.35"/>
<circle cx="320.275" cy="532.547" r="5.07203" fill="#25356A" fill-opacity="0.35"/>
<circle cx="337.182" cy="532.547" r="5.07203" fill="#25356A" fill-opacity="0.35"/>
<circle cx="15.9534" cy="549.454" r="5.07203" fill="#25356A" fill-opacity="0.35"/>
<circle cx="32.8601" cy="549.454" r="5.07203" fill="#25356A" fill-opacity="0.35"/>
<circle cx="49.767" cy="549.454" r="5.07203" fill="#25356A" fill-opacity="0.35"/>
<circle cx="66.6737" cy="549.454" r="5.07203" fill="#25356A" fill-opacity="0.35"/>
<circle cx="83.5806" cy="549.454" r="5.07203" fill="#25356A" fill-opacity="0.35"/>
<circle cx="134.301" cy="549.454" r="5.07203" fill="#25356A" fill-opacity="0.35"/>
<circle cx="151.208" cy="549.454" r="5.07203" fill="#25356A" fill-opacity="0.35"/>
<circle cx="168.114" cy="549.454" r="5.07203" fill="#25356A" fill-opacity="0.35"/>
<circle cx="185.021" cy="549.454" r="5.07203" fill="#25356A" fill-opacity="0.35"/>
<circle cx="201.928" cy="549.454" r="5.07203" fill="#25356A" fill-opacity="0.35"/>
<circle cx="218.835" cy="549.454" r="5.07203" fill="#25356A" fill-opacity="0.35"/>
<circle cx="235.741" cy="549.454" r="5.07203" fill="#25356A" fill-opacity="0.35"/>
<circle cx="252.648" cy="549.454" r="5.07203" fill="#25356A" fill-opacity="0.35"/>
<circle cx="269.555" cy="549.454" r="5.07203" fill="#25356A" fill-opacity="0.35"/>
<circle cx="286.462" cy="549.454" r="5.07203" fill="#25356A" fill-opacity="0.35"/>
<circle cx="303.369" cy="549.454" r="5.07203" fill="#25356A" fill-opacity="0.35"/>
<circle cx="320.275" cy="549.454" r="5.07203" fill="#25356A" fill-opacity="0.35"/>
<circle cx="337.182" cy="549.454" r="5.07203" fill="#25356A" fill-opacity="0.35"/>
<circle cx="-0.953357" cy="566.36" r="5.07203" fill="#25356A" fill-opacity="0.35"/>
<circle cx="15.9534" cy="566.36" r="5.07203" fill="#25356A" fill-opacity="0.35"/>
<circle cx="32.8601" cy="566.36" r="5.07203" fill="#25356A" fill-opacity="0.35"/>
<circle cx="49.767" cy="566.36" r="5.07203" fill="#25356A" fill-opacity="0.35"/>
<circle cx="66.6737" cy="566.36" r="5.07203" fill="#25356A" fill-opacity="0.35"/>
<circle cx="83.5806" cy="566.36" r="5.07203" fill="#25356A" fill-opacity="0.35"/>
<circle cx="100.487" cy="566.36" r="5.07203" fill="#25356A" fill-opacity="0.35"/>
<circle cx="117.394" cy="566.36" r="5.07203" fill="#25356A" fill-opacity="0.35"/>
<circle cx="134.301" cy="566.36" r="5.07203" fill="#25356A" fill-opacity="0.35"/>
<circle cx="168.114" cy="566.36" r="5.07203" fill="#25356A" fill-opacity="0.35"/>
<circle cx="185.021" cy="566.36" r="5.07203" fill="#25356A" fill-opacity="0.35"/>
<circle cx="201.928" cy="566.36" r="5.07203" fill="#25356A" fill-opacity="0.35"/>
<circle cx="218.835" cy="566.36" r="5.07203" fill="#25356A" fill-opacity="0.35"/>
<circle cx="235.741" cy="566.36" r="5.07203" fill="#25356A" fill-opacity="0.35"/>
<circle cx="252.648" cy="566.36" r="5.07203" fill="#25356A" fill-opacity="0.35"/>
<circle cx="269.555" cy="566.36" r="5.07203" fill="#25356A" fill-opacity="0.35"/>
<circle cx="286.462" cy="566.36" r="5.07203" fill="#25356A" fill-opacity="0.35"/>
<circle cx="303.369" cy="566.36" r="5.07203" fill="#25356A" fill-opacity="0.35"/>
<circle cx="320.275" cy="566.36" r="5.07203" fill="#25356A" fill-opacity="0.35"/>
<circle cx="337.182" cy="566.36" r="5.07203" fill="#25356A" fill-opacity="0.35"/>
<circle cx="-0.953357" cy="583.267" r="5.07203" fill="#25356A" fill-opacity="0.35"/>
<circle cx="15.9534" cy="583.267" r="5.07203" fill="#25356A" fill-opacity="0.35"/>
<circle cx="32.8601" cy="583.267" r="5.07203" fill="#25356A" fill-opacity="0.35"/>
<circle cx="49.767" cy="583.267" r="5.07203" fill="#25356A" fill-opacity="0.35"/>
<circle cx="66.6737" cy="583.267" r="5.07203" fill="#25356A" fill-opacity="0.35"/>
<circle cx="83.5806" cy="583.267" r="5.07203" fill="#25356A" fill-opacity="0.35"/>
<circle cx="100.487" cy="583.267" r="5.07203" fill="#25356A" fill-opacity="0.35"/>
<circle cx="117.394" cy="583.267" r="5.07203" fill="#25356A" fill-opacity="0.35"/>
<circle cx="134.301" cy="583.267" r="5.07203" fill="#25356A" fill-opacity="0.35"/>
<circle cx="151.208" cy="583.267" r="5.07203" fill="#25356A" fill-opacity="0.35"/>
<circle cx="168.114" cy="583.267" r="5.07203" fill="#25356A" fill-opacity="0.35"/>
<circle cx="201.928" cy="583.267" r="5.07203" fill="#25356A" fill-opacity="0.35"/>
<circle cx="218.835" cy="583.267" r="5.07203" fill="#25356A" fill-opacity="0.35"/>
<circle cx="235.741" cy="583.267" r="5.07203" fill="#25356A" fill-opacity="0.35"/>
<circle cx="252.648" cy="583.267" r="5.07203" fill="#25356A" fill-opacity="0.35"/>
<circle cx="269.555" cy="583.267" r="5.07203" fill="#25356A" fill-opacity="0.35"/>
<circle cx="286.462" cy="583.267" r="5.07203" fill="#25356A" fill-opacity="0.35"/>
<circle cx="303.369" cy="583.267" r="5.07203" fill="#25356A" fill-opacity="0.35"/>
<circle cx="320.275" cy="583.267" r="5.07203" fill="#25356A" fill-opacity="0.35"/>
<circle cx="337.182" cy="583.267" r="5.07203" fill="#25356A" fill-opacity="0.35"/>
<circle cx="-0.953357" cy="600.174" r="5.07203" fill="#25356A" fill-opacity="0.35"/>
<circle cx="15.9534" cy="600.174" r="5.07203" fill="#25356A" fill-opacity="0.35"/>
<circle cx="32.8601" cy="600.174" r="5.07203" fill="#25356A" fill-opacity="0.35"/>
<circle cx="49.767" cy="600.174" r="5.07203" fill="#25356A" fill-opacity="0.35"/>
<circle cx="66.6737" cy="600.174" r="5.07203" fill="#25356A" fill-opacity="0.35"/>
<circle cx="83.5806" cy="600.174" r="5.07203" fill="#25356A" fill-opacity="0.35"/>
<circle cx="100.487" cy="600.174" r="5.07203" fill="#25356A" fill-opacity="0.35"/>
<circle cx="117.394" cy="600.174" r="5.07203" fill="#25356A" fill-opacity="0.35"/>
<circle cx="134.301" cy="600.174" r="5.07203" fill="#25356A" fill-opacity="0.35"/>
<circle cx="151.208" cy="600.174" r="5.07203" fill="#25356A" fill-opacity="0.35"/>
<circle cx="168.114" cy="600.174" r="5.07203" fill="#25356A" fill-opacity="0.35"/>
<circle cx="185.021" cy="600.174" r="5.07203" fill="#25356A" fill-opacity="0.35"/>
<circle cx="218.835" cy="600.174" r="5.07203" fill="#25356A" fill-opacity="0.35"/>
<circle cx="235.741" cy="600.174" r="5.07203" fill="#25356A" fill-opacity="0.35"/>
<circle cx="252.648" cy="600.174" r="5.07203" fill="#25356A" fill-opacity="0.35"/>
<circle cx="269.555" cy="600.174" r="5.07203" fill="#25356A" fill-opacity="0.35"/>
<circle cx="286.462" cy="600.174" r="5.07203" fill="#25356A" fill-opacity="0.35"/>
<circle cx="303.369" cy="600.174" r="5.07203" fill="#25356A" fill-opacity="0.35"/>
<circle cx="320.275" cy="600.174" r="5.07203" fill="#25356A" fill-opacity="0.35"/>
<circle cx="337.182" cy="600.174" r="5.07203" fill="#25356A" fill-opacity="0.35"/>
<circle cx="-0.953357" cy="617.081" r="5.07203" fill="#25356A" fill-opacity="0.35"/>
<circle cx="15.9534" cy="617.081" r="5.07203" fill="#25356A" fill-opacity="0.35"/>
<circle cx="32.8601" cy="617.081" r="5.07203" fill="#25356A" fill-opacity="0.35"/>
<circle cx="49.767" cy="617.081" r="5.07203" fill="#25356A" fill-opacity="0.35"/>
<circle cx="66.6737" cy="617.081" r="5.07203" fill="#25356A" fill-opacity="0.35"/>
<circle cx="83.5806" cy="617.081" r="5.07203" fill="#25356A" fill-opacity="0.35"/>
<circle cx="100.487" cy="617.081" r="5.07203" fill="#25356A" fill-opacity="0.35"/>
<circle cx="117.394" cy="617.081" r="5.07203" fill="#25356A" fill-opacity="0.35"/>
<circle cx="134.301" cy="617.081" r="5.07203" fill="#25356A" fill-opacity="0.35"/>
<circle cx="151.208" cy="617.081" r="5.07203" fill="#25356A" fill-opacity="0.35"/>
<circle cx="168.114" cy="617.081" r="5.07203" fill="#25356A" fill-opacity="0.35"/>
<circle cx="185.021" cy="617.081" r="5.07203" fill="#25356A" fill-opacity="0.35"/>
<circle cx="201.928" cy="617.081" r="5.07203" fill="#25356A" fill-opacity="0.35"/>
<circle cx="218.835" cy="617.081" r="5.07203" fill="#25356A" fill-opacity="0.35"/>
<circle cx="252.648" cy="617.081" r="5.07203" fill="#25356A" fill-opacity="0.35"/>
<circle cx="269.555" cy="617.081" r="5.07203" fill="#25356A" fill-opacity="0.35"/>
<circle cx="286.462" cy="617.081" r="5.07203" fill="#25356A" fill-opacity="0.35"/>
<circle cx="303.369" cy="617.081" r="5.07203" fill="#25356A" fill-opacity="0.35"/>
<circle cx="320.275" cy="617.081" r="5.07203" fill="#25356A" fill-opacity="0.35"/>
<circle cx="337.182" cy="617.081" r="5.07203" fill="#25356A" fill-opacity="0.35"/>
<circle cx="-0.953357" cy="633.988" r="5.07203" fill="#25356A" fill-opacity="0.35"/>
<circle cx="15.9534" cy="633.988" r="5.07203" fill="#25356A" fill-opacity="0.35"/>
<circle cx="32.8601" cy="633.988" r="5.07203" fill="#25356A" fill-opacity="0.35"/>
<circle cx="49.767" cy="633.988" r="5.07203" fill="#25356A" fill-opacity="0.35"/>
<circle cx="66.6737" cy="633.988" r="5.07203" fill="#25356A" fill-opacity="0.35"/>
<circle cx="83.5806" cy="633.988" r="5.07203" fill="#25356A" fill-opacity="0.35"/>
<circle cx="100.487" cy="633.988" r="5.07203" fill="#25356A" fill-opacity="0.35"/>
<circle cx="117.394" cy="633.988" r="5.07203" fill="#25356A" fill-opacity="0.35"/>
<circle cx="134.301" cy="633.988" r="5.07203" fill="#25356A" fill-opacity="0.35"/>
<circle cx="151.208" cy="633.988" r="5.07203" fill="#25356A" fill-opacity="0.35"/>
<circle cx="168.114" cy="633.988" r="5.07203" fill="#25356A" fill-opacity="0.35"/>
<circle cx="185.021" cy="633.988" r="5.07203" fill="#25356A" fill-opacity="0.35"/>
<circle cx="201.928" cy="633.988" r="5.07203" fill="#25356A" fill-opacity="0.35"/>
<circle cx="218.835" cy="633.988" r="5.07203" fill="#25356A" fill-opacity="0.35"/>
<circle cx="235.741" cy="633.988" r="5.07203" fill="#25356A" fill-opacity="0.35"/>
<circle cx="269.555" cy="633.988" r="5.07203" fill="#25356A" fill-opacity="0.35"/>
<circle cx="286.462" cy="633.988" r="5.07203" fill="#25356A" fill-opacity="0.35"/>
<circle cx="303.369" cy="633.988" r="5.07203" fill="#25356A" fill-opacity="0.35"/>
<circle cx="320.275" cy="633.988" r="5.07203" fill="#25356A" fill-opacity="0.35"/>
<circle cx="337.182" cy="633.988" r="5.07203" fill="#25356A" fill-opacity="0.35"/>
<circle cx="-0.953357" cy="650.894" r="5.07203" fill="#25356A" fill-opacity="0.35"/>
<circle cx="15.9534" cy="650.894" r="5.07203" fill="#25356A" fill-opacity="0.35"/>
<circle cx="32.8601" cy="650.894" r="5.07203" fill="#25356A" fill-opacity="0.35"/>
<circle cx="49.767" cy="650.894" r="5.07203" fill="#25356A" fill-opacity="0.35"/>
<circle cx="66.6737" cy="650.894" r="5.07203" fill="#25356A" fill-opacity="0.35"/>
<circle cx="83.5806" cy="650.894" r="5.07203" fill="#25356A" fill-opacity="0.35"/>
<circle cx="100.487" cy="650.894" r="5.07203" fill="#25356A" fill-opacity="0.35"/>
<circle cx="117.394" cy="650.894" r="5.07203" fill="#25356A" fill-opacity="0.35"/>
<circle cx="134.301" cy="650.894" r="5.07203" fill="#25356A" fill-opacity="0.35"/>
<circle cx="151.208" cy="650.894" r="5.07203" fill="#25356A" fill-opacity="0.35"/>
<circle cx="168.114" cy="650.894" r="5.07203" fill="#25356A" fill-opacity="0.35"/>
<circle cx="185.021" cy="650.894" r="5.07203" fill="#25356A" fill-opacity="0.35"/>
<circle cx="201.928" cy="650.894" r="5.07203" fill="#25356A" fill-opacity="0.35"/>
<circle cx="218.835" cy="650.894" r="5.07203" fill="#25356A" fill-opacity="0.35"/>
<circle cx="235.741" cy="650.894" r="5.07203" fill="#25356A" fill-opacity="0.35"/>
<circle cx="252.648" cy="650.894" r="5.07203" fill="#25356A" fill-opacity="0.35"/>
<circle cx="286.462" cy="650.894" r="5.07203" fill="#25356A" fill-opacity="0.35"/>
<circle cx="303.369" cy="650.894" r="5.07203" fill="#25356A" fill-opacity="0.35"/>
<circle cx="320.275" cy="650.894" r="5.07203" fill="#25356A" fill-opacity="0.35"/>
<circle cx="337.182" cy="650.894" r="5.07203" fill="#25356A" fill-opacity="0.35"/>
<circle cx="-0.953357" cy="667.801" r="5.07203" fill="#25356A" fill-opacity="0.35"/>
<circle cx="15.9534" cy="667.801" r="5.07203" fill="#25356A" fill-opacity="0.35"/>
<circle cx="32.8601" cy="667.801" r="5.07203" fill="#25356A" fill-opacity="0.35"/>
<circle cx="49.767" cy="667.801" r="5.07203" fill="#25356A" fill-opacity="0.35"/>
<circle cx="66.6737" cy="667.801" r="5.07203" fill="#25356A" fill-opacity="0.35"/>
<circle cx="83.5806" cy="667.801" r="5.07203" fill="#25356A" fill-opacity="0.35"/>
<circle cx="100.487" cy="667.801" r="5.07203" fill="#25356A" fill-opacity="0.35"/>
<circle cx="117.394" cy="667.801" r="5.07203" fill="#25356A" fill-opacity="0.35"/>
<circle cx="134.301" cy="667.801" r="5.07203" fill="#25356A" fill-opacity="0.35"/>
<circle cx="151.208" cy="667.801" r="5.07203" fill="#25356A" fill-opacity="0.35"/>
<circle cx="168.114" cy="667.801" r="5.07203" fill="#25356A" fill-opacity="0.35"/>
<circle cx="185.021" cy="667.801" r="5.07203" fill="#25356A" fill-opacity="0.35"/>
<circle cx="201.928" cy="667.801" r="5.07203" fill="#25356A" fill-opacity="0.35"/>
<circle cx="218.835" cy="667.801" r="5.07203" fill="#25356A" fill-opacity="0.35"/>
<circle cx="235.741" cy="667.801" r="5.07203" fill="#25356A" fill-opacity="0.35"/>
<circle cx="252.648" cy="667.801" r="5.07203" fill="#25356A" fill-opacity="0.35"/>
<circle cx="269.555" cy="667.801" r="5.07203" fill="#25356A" fill-opacity="0.35"/>
<circle cx="286.462" cy="667.801" r="5.07203" fill="#25356A" fill-opacity="0.35"/>
<circle cx="320.275" cy="667.801" r="5.07203" fill="#25356A" fill-opacity="0.35"/>
<circle cx="337.182" cy="667.801" r="5.07203" fill="#25356A" fill-opacity="0.35"/>
<circle cx="-0.953357" cy="684.708" r="5.07203" fill="#25356A" fill-opacity="0.35"/>
<circle cx="15.9534" cy="684.708" r="5.07203" fill="#25356A" fill-opacity="0.35"/>
<circle cx="32.8601" cy="684.708" r="5.07203" fill="#25356A" fill-opacity="0.35"/>
<circle cx="49.767" cy="684.708" r="5.07203" fill="#25356A" fill-opacity="0.35"/>
<circle cx="66.6737" cy="684.708" r="5.07203" fill="#25356A" fill-opacity="0.35"/>
<circle cx="83.5806" cy="684.708" r="5.07203" fill="#25356A" fill-opacity="0.35"/>
<circle cx="100.487" cy="684.708" r="5.07203" fill="#25356A" fill-opacity="0.35"/>
<circle cx="117.394" cy="684.708" r="5.07203" fill="#25356A" fill-opacity="0.35"/>
<circle cx="134.301" cy="684.708" r="5.07203" fill="#25356A" fill-opacity="0.35"/>
<circle cx="151.208" cy="684.708" r="5.07203" fill="#25356A" fill-opacity="0.35"/>
<circle cx="168.114" cy="684.708" r="5.07203" fill="#25356A" fill-opacity="0.35"/>
<circle cx="185.021" cy="684.708" r="5.07203" fill="#25356A" fill-opacity="0.35"/>
<circle cx="201.928" cy="684.708" r="5.07203" fill="#25356A" fill-opacity="0.35"/>
<circle cx="218.835" cy="684.708" r="5.07203" fill="#25356A" fill-opacity="0.35"/>
<circle cx="235.741" cy="684.708" r="5.07203" fill="#25356A" fill-opacity="0.35"/>
<circle cx="252.648" cy="684.708" r="5.07203" fill="#25356A" fill-opacity="0.35"/>
<circle cx="269.555" cy="684.708" r="5.07203" fill="#25356A" fill-opacity="0.35"/>
<circle cx="286.462" cy="684.708" r="5.07203" fill="#25356A" fill-opacity="0.35"/>
<circle cx="303.369" cy="684.708" r="5.07203" fill="#25356A" fill-opacity="0.35"/>
<circle cx="337.182" cy="684.708" r="5.07203" fill="#25356A" fill-opacity="0.35"/>
<circle cx="-0.953357" cy="701.615" r="5.07203" fill="#25356A" fill-opacity="0.35"/>
<circle cx="15.9534" cy="701.615" r="5.07203" fill="#25356A" fill-opacity="0.35"/>
<circle cx="32.8601" cy="701.615" r="5.07203" fill="#25356A" fill-opacity="0.35"/>
<circle cx="49.767" cy="701.615" r="5.07203" fill="#25356A" fill-opacity="0.35"/>
<circle cx="66.6737" cy="701.615" r="5.07203" fill="#25356A" fill-opacity="0.35"/>
<circle cx="83.5806" cy="701.615" r="5.07203" fill="#25356A" fill-opacity="0.35"/>
<circle cx="100.487" cy="701.615" r="5.07203" fill="#25356A" fill-opacity="0.35"/>
<circle cx="117.394" cy="701.615" r="5.07203" fill="#25356A" fill-opacity="0.35"/>
<circle cx="134.301" cy="701.615" r="5.07203" fill="#25356A" fill-opacity="0.35"/>
<circle cx="151.208" cy="701.615" r="5.07203" fill="#25356A" fill-opacity="0.35"/>
<circle cx="168.114" cy="701.615" r="5.07203" fill="#25356A" fill-opacity="0.35"/>
<circle cx="185.021" cy="701.615" r="5.07203" fill="#25356A" fill-opacity="0.35"/>
<circle cx="201.928" cy="701.615" r="5.07203" fill="#25356A" fill-opacity="0.35"/>
<circle cx="218.835" cy="701.615" r="5.07203" fill="#25356A" fill-opacity="0.35"/>
<circle cx="235.741" cy="701.615" r="5.07203" fill="#25356A" fill-opacity="0.35"/>
<circle cx="252.648" cy="701.615" r="5.07203" fill="#25356A" fill-opacity="0.35"/>
<circle cx="269.555" cy="701.615" r="5.07203" fill="#25356A" fill-opacity="0.35"/>
<circle cx="286.462" cy="701.615" r="5.07203" fill="#25356A" fill-opacity="0.35"/>
<circle cx="303.369" cy="701.615" r="5.07203" fill="#25356A" fill-opacity="0.35"/>
<circle cx="320.275" cy="701.615" r="5.07203" fill="#25356A" fill-opacity="0.35"/>
<circle cx="337.182" cy="701.615" r="5.07203" fill="#25356A" fill-opacity="0.35"/>
<circle cx="-0.953357" cy="718.522" r="5.07203" fill="#25356A" fill-opacity="0.35"/>
<circle cx="15.9534" cy="718.522" r="5.07203" fill="#25356A" fill-opacity="0.35"/>
<circle cx="32.8601" cy="718.522" r="5.07203" fill="#25356A" fill-opacity="0.35"/>
<circle cx="49.767" cy="718.522" r="5.07203" fill="#25356A" fill-opacity="0.35"/>
<circle cx="66.6737" cy="718.522" r="5.07203" fill="#25356A" fill-opacity="0.35"/>
<circle cx="83.5806" cy="718.522" r="5.07203" fill="#25356A" fill-opacity="0.35"/>
<circle cx="100.487" cy="718.522" r="5.07203" fill="#25356A" fill-opacity="0.35"/>
<circle cx="117.394" cy="718.522" r="5.07203" fill="#25356A" fill-opacity="0.35"/>
<circle cx="134.301" cy="718.522" r="5.07203" fill="#25356A" fill-opacity="0.35"/>
<circle cx="151.208" cy="718.522" r="5.07203" fill="#25356A" fill-opacity="0.35"/>
<circle cx="168.114" cy="718.522" r="5.07203" fill="#25356A" fill-opacity="0.35"/>
<circle cx="185.021" cy="718.522" r="5.07203" fill="#25356A" fill-opacity="0.35"/>
<circle cx="201.928" cy="718.522" r="5.07203" fill="#25356A" fill-opacity="0.35"/>
<circle cx="218.835" cy="718.522" r="5.07203" fill="#25356A" fill-opacity="0.35"/>
<circle cx="235.741" cy="718.522" r="5.07203" fill="#25356A" fill-opacity="0.35"/>
<circle cx="252.648" cy="718.522" r="5.07203" fill="#25356A" fill-opacity="0.35"/>
<circle cx="269.555" cy="718.522" r="5.07203" fill="#25356A" fill-opacity="0.35"/>
<circle cx="286.462" cy="718.522" r="5.07203" fill="#25356A" fill-opacity="0.35"/>
<circle cx="303.369" cy="718.522" r="5.07203" fill="#25356A" fill-opacity="0.35"/>
<circle cx="320.275" cy="718.522" r="5.07203" fill="#25356A" fill-opacity="0.35"/>
<circle cx="-0.953357" cy="735.428" r="5.07203" fill="#25356A" fill-opacity="0.35"/>
<circle cx="15.9534" cy="735.428" r="5.07203" fill="#25356A" fill-opacity="0.35"/>
<circle cx="32.8601" cy="735.428" r="5.07203" fill="#25356A" fill-opacity="0.35"/>
<circle cx="49.767" cy="735.428" r="5.07203" fill="#25356A" fill-opacity="0.35"/>
<circle cx="66.6737" cy="735.428" r="5.07203" fill="#25356A" fill-opacity="0.35"/>
<circle cx="83.5806" cy="735.428" r="5.07203" fill="#25356A" fill-opacity="0.35"/>
<circle cx="100.487" cy="735.428" r="5.07203" fill="#25356A" fill-opacity="0.35"/>
<circle cx="117.394" cy="735.428" r="5.07203" fill="#25356A" fill-opacity="0.35"/>
<circle cx="134.301" cy="735.428" r="5.07203" fill="#25356A" fill-opacity="0.35"/>
<circle cx="151.208" cy="735.428" r="5.07203" fill="#25356A" fill-opacity="0.35"/>
<circle cx="168.114" cy="735.428" r="5.07203" fill="#25356A" fill-opacity="0.35"/>
<circle cx="185.021" cy="735.428" r="5.07203" fill="#25356A" fill-opacity="0.35"/>
<circle cx="201.928" cy="735.428" r="5.07203" fill="#25356A" fill-opacity="0.35"/>
<circle cx="218.835" cy="735.428" r="5.07203" fill="#25356A" fill-opacity="0.35"/>
<circle cx="235.741" cy="735.428" r="5.07203" fill="#25356A" fill-opacity="0.35"/>
<circle cx="252.648" cy="735.428" r="5.07203" fill="#25356A" fill-opacity="0.35"/>
<circle cx="269.555" cy="735.428" r="5.07203" fill="#25356A" fill-opacity="0.35"/>
<circle cx="286.462" cy="735.428" r="5.07203" fill="#25356A" fill-opacity="0.35"/>
<circle cx="303.369" cy="735.428" r="5.07203" fill="#25356A" fill-opacity="0.35"/>
<circle cx="320.275" cy="735.428" r="5.07203" fill="#25356A" fill-opacity="0.35"/>
<circle cx="-0.953357" cy="752.335" r="5.07203" fill="#25356A" fill-opacity="0.35"/>
<circle cx="15.9534" cy="752.335" r="5.07203" fill="#25356A" fill-opacity="0.35"/>
<circle cx="32.8601" cy="752.335" r="5.07203" fill="#25356A" fill-opacity="0.35"/>
<circle cx="49.767" cy="752.335" r="5.07203" fill="#25356A" fill-opacity="0.35"/>
<circle cx="66.6737" cy="752.335" r="5.07203" fill="#25356A" fill-opacity="0.35"/>
<circle cx="83.5806" cy="752.335" r="5.07203" fill="#25356A" fill-opacity="0.35"/>
<circle cx="100.487" cy="752.335" r="5.07203" fill="#25356A" fill-opacity="0.35"/>
<circle cx="117.394" cy="752.335" r="5.07203" fill="#25356A" fill-opacity="0.35"/>
<circle cx="134.301" cy="752.335" r="5.07203" fill="#25356A" fill-opacity="0.35"/>
<circle cx="151.208" cy="752.335" r="5.07203" fill="#25356A" fill-opacity="0.35"/>
<circle cx="168.114" cy="752.335" r="5.07203" fill="#25356A" fill-opacity="0.35"/>
<circle cx="185.021" cy="752.335" r="5.07203" fill="#25356A" fill-opacity="0.35"/>
<circle cx="201.928" cy="752.335" r="5.07203" fill="#25356A" fill-opacity="0.35"/>
<circle cx="218.835" cy="752.335" r="5.07203" fill="#25356A" fill-opacity="0.35"/>
<circle cx="235.741" cy="752.335" r="5.07203" fill="#25356A" fill-opacity="0.35"/>
<circle cx="252.648" cy="752.335" r="5.07203" fill="#25356A" fill-opacity="0.35"/>
<circle cx="269.555" cy="752.335" r="5.07203" fill="#25356A" fill-opacity="0.35"/>
<circle cx="286.462" cy="752.335" r="5.07203" fill="#25356A" fill-opacity="0.35"/>
<circle cx="303.369" cy="752.335" r="5.07203" fill="#25356A" fill-opacity="0.35"/>
<circle cx="320.275" cy="752.335" r="5.07203" fill="#25356A" fill-opacity="0.35"/>
<circle cx="337.182" cy="752.335" r="5.07203" fill="#25356A" fill-opacity="0.35"/>
<circle cx="-0.953357" cy="769.242" r="5.07203" fill="#25356A" fill-opacity="0.35"/>
<circle cx="15.9534" cy="769.242" r="5.07203" fill="#25356A" fill-opacity="0.35"/>
<circle cx="32.8601" cy="769.242" r="5.07203" fill="#25356A" fill-opacity="0.35"/>
<circle cx="49.767" cy="769.242" r="5.07203" fill="#25356A" fill-opacity="0.35"/>
<circle cx="66.6737" cy="769.242" r="5.07203" fill="#25356A" fill-opacity="0.35"/>
<circle cx="83.5806" cy="769.242" r="5.07203" fill="#25356A" fill-opacity="0.35"/>
<circle cx="100.487" cy="769.242" r="5.07203" fill="#25356A" fill-opacity="0.35"/>
<circle cx="117.394" cy="769.242" r="5.07203" fill="#25356A" fill-opacity="0.35"/>
<circle cx="134.301" cy="769.242" r="5.07203" fill="#25356A" fill-opacity="0.35"/>
<circle cx="151.208" cy="769.242" r="5.07203" fill="#25356A" fill-opacity="0.35"/>
<circle cx="168.114" cy="769.242" r="5.07203" fill="#25356A" fill-opacity="0.35"/>
<circle cx="185.021" cy="769.242" r="5.07203" fill="#25356A" fill-opacity="0.35"/>
<circle cx="201.928" cy="769.242" r="5.07203" fill="#25356A" fill-opacity="0.35"/>
<circle cx="218.835" cy="769.242" r="5.07203" fill="#25356A" fill-opacity="0.35"/>
<circle cx="235.741" cy="769.242" r="5.07203" fill="#25356A" fill-opacity="0.35"/>
<circle cx="252.648" cy="769.242" r="5.07203" fill="#25356A" fill-opacity="0.35"/>
<circle cx="269.555" cy="769.242" r="5.07203" fill="#25356A" fill-opacity="0.35"/>
<circle cx="286.462" cy="769.242" r="5.07203" fill="#25356A" fill-opacity="0.35"/>
<circle cx="303.369" cy="769.242" r="5.07203" fill="#25356A" fill-opacity="0.35"/>
<circle cx="320.275" cy="769.242" r="5.07203" fill="#25356A" fill-opacity="0.35"/>
<circle cx="-0.953357" cy="786.149" r="5.07203" fill="#25356A" fill-opacity="0.35"/>
<circle cx="15.9534" cy="786.149" r="5.07203" fill="#25356A" fill-opacity="0.35"/>
<circle cx="32.8601" cy="786.149" r="5.07203" fill="#25356A" fill-opacity="0.35"/>
<circle cx="49.767" cy="786.149" r="5.07203" fill="#25356A" fill-opacity="0.35"/>
<circle cx="66.6737" cy="786.149" r="5.07203" fill="#25356A" fill-opacity="0.35"/>
<circle cx="83.5806" cy="786.149" r="5.07203" fill="#25356A" fill-opacity="0.35"/>
<circle cx="100.487" cy="786.149" r="5.07203" fill="#25356A" fill-opacity="0.35"/>
<circle cx="117.394" cy="786.149" r="5.07203" fill="#25356A" fill-opacity="0.35"/>
<circle cx="134.301" cy="786.149" r="5.07203" fill="#25356A" fill-opacity="0.35"/>
<circle cx="151.208" cy="786.149" r="5.07203" fill="#25356A" fill-opacity="0.35"/>
<circle cx="168.114" cy="786.149" r="5.07203" fill="#25356A" fill-opacity="0.35"/>
<circle cx="185.021" cy="786.149" r="5.07203" fill="#25356A" fill-opacity="0.35"/>
<circle cx="201.928" cy="786.149" r="5.07203" fill="#25356A" fill-opacity="0.35"/>
<circle cx="218.835" cy="786.149" r="5.07203" fill="#25356A" fill-opacity="0.35"/>
<circle cx="235.741" cy="786.149" r="5.07203" fill="#25356A" fill-opacity="0.35"/>
<circle cx="252.648" cy="786.149" r="5.07203" fill="#25356A" fill-opacity="0.35"/>
<circle cx="269.555" cy="786.149" r="5.07203" fill="#25356A" fill-opacity="0.35"/>
<circle cx="286.462" cy="786.149" r="5.07203" fill="#25356A" fill-opacity="0.35"/>
<circle cx="303.369" cy="786.149" r="5.07203" fill="#25356A" fill-opacity="0.35"/>
<circle cx="320.275" cy="786.149" r="5.07203" fill="#25356A" fill-opacity="0.35"/>
</g>
<g opacity="0.91" filter="url(#filter1_d_1_2572)">
<path d="M298.447 723.59C55.6277 510.852 -31.7042 626.802 -39.429 638.258C-39.8513 638.884 -39.9964 639.538 -39.9894 640.294L-38.082 845.474C-36.6919 995.019 88.6374 1124.34 225.543 1064.15C295.772 1033.28 360.03 983.027 388.005 901.317C427.397 786.26 318.11 740.817 298.447 723.59Z" fill="#6FCF97"/>
</g>
<defs>
<filter id="filter0_d_1_2572" x="-55.9559" y="560.509" width="549.293" height="595.581" filterUnits="userSpaceOnUse" color-interpolation-filters="sRGB">
<feFlood flood-opacity="0" result="BackgroundImageFix"/>
<feColorMatrix in="SourceAlpha" type="matrix" values="0 0 0 0 0 0 0 0 0 0 0 0 0 0 0 0 0 0 127 0" result="hardAlpha"/>
<feOffset dx="20.4354" dy="20.4354"/>
<feGaussianBlur stdDeviation="28.2009"/>
<feColorMatrix type="matrix" values="0 0 0 0 0 0 0 0 0 0 0 0 0 0 0 0 0 0 0.04 0"/>
<feBlend mode="normal" in2="BackgroundImageFix" result="effect1_dropShadow_1_2572"/>
<feBlend mode="normal" in="SourceGraphic" in2="effect1_dropShadow_1_2572" result="shape"/>
</filter>
<filter id="filter1_d_1_2572" x="-75.9559" y="560.509" width="549.293" height="595.581" filterUnits="userSpaceOnUse" color-interpolation-filters="sRGB">
<feFlood flood-opacity="0" result="BackgroundImageFix"/>
<feColorMatrix in="SourceAlpha" type="matrix" values="0 0 0 0 0 0 0 0 0 0 0 0 0 0 0 0 0 0 127 0" result="hardAlpha"/>
<feOffset dx="20.4354" dy="20.4354"/>
<feGaussianBlur stdDeviation="28.2009"/>
<feColorMatrix type="matrix" values="0 0 0 0 0 0 0 0 0 0 0 0 0 0 0 0 0 0 0.04 0"/>
<feBlend mode="normal" in2="BackgroundImageFix" result="effect1_dropShadow_1_2572"/>
<feBlend mode="normal" in="SourceGraphic" in2="effect1_dropShadow_1_2572" result="shape"/>
</filter>
</defs>
</svg>
